<?xml version="1.0" encoding="UTF-8" standalone="no"?>
<svg
   xmlns:dc="http://purl.org/dc/elements/1.1/"
   xmlns:cc="http://creativecommons.org/ns#"
   xmlns:rdf="http://www.w3.org/1999/02/22-rdf-syntax-ns#"
   xmlns:svg="http://www.w3.org/2000/svg"
   xmlns="http://www.w3.org/2000/svg"
   xmlns:sodipodi="http://sodipodi.sourceforge.net/DTD/sodipodi-0.dtd"
   xmlns:inkscape="http://www.inkscape.org/namespaces/inkscape"
   width="21cm"
   height="29.700001cm"
   viewBox="0 0 210 297"
   version="1.1"
   id="svg8"
   inkscape:version="1.0.2 (e86c870879, 2021-01-15)"
   sodipodi:docname="portofolio-cover.svg">
  <defs
     id="defs2">
    <rect
       x="-1496.3611"
       y="-559.77655"
       width="416.80395"
       height="502.06762"
       id="rect62" />
    <inkscape:path-effect
       effect="bspline"
       id="path-effect30"
       is_visible="true"
       lpeversion="1"
       weight="33.333333"
       steps="2"
       helper_size="0"
       apply_no_weight="true"
       apply_with_weight="true"
       only_selected="false" />
    <inkscape:path-effect
       effect="bspline"
       id="path-effect34"
       is_visible="true"
       lpeversion="1"
       weight="33.333333"
       steps="2"
       helper_size="0"
       apply_no_weight="true"
       apply_with_weight="true"
       only_selected="false" />
    <inkscape:path-effect
       effect="bspline"
       id="path-effect38"
       is_visible="true"
       lpeversion="1"
       weight="33.333333"
       steps="2"
       helper_size="0"
       apply_no_weight="true"
       apply_with_weight="true"
       only_selected="false" />
    <inkscape:path-effect
       effect="bspline"
       id="path-effect42"
       is_visible="true"
       lpeversion="1"
       weight="33.333333"
       steps="2"
       helper_size="0"
       apply_no_weight="true"
       apply_with_weight="true"
       only_selected="false" />
    <inkscape:path-effect
       effect="bspline"
       id="path-effect50"
       is_visible="true"
       lpeversion="1"
       weight="33.333333"
       steps="2"
       helper_size="0"
       apply_no_weight="true"
       apply_with_weight="true"
       only_selected="false" />
    <inkscape:path-effect
       effect="bspline"
       id="path-effect54"
       is_visible="true"
       lpeversion="1"
       weight="33.333333"
       steps="2"
       helper_size="0"
       apply_no_weight="true"
       apply_with_weight="true"
       only_selected="false" />
    <inkscape:path-effect
       effect="bspline"
       id="path-effect955"
       is_visible="true"
       lpeversion="1"
       weight="33.333333"
       steps="2"
       helper_size="0"
       apply_no_weight="true"
       apply_with_weight="true"
       only_selected="false" />
  </defs>
  <sodipodi:namedview
     id="base"
     pagecolor="#ffffff"
     bordercolor="#666666"
     borderopacity="1.0"
     inkscape:pageopacity="0.0"
     inkscape:pageshadow="2"
     inkscape:zoom="0.38"
     inkscape:cx="579.79626"
     inkscape:cy="628.71615"
     inkscape:document-units="cm"
     inkscape:current-layer="g1170"
     inkscape:document-rotation="0"
     showgrid="false"
     units="cm"
     inkscape:window-width="1366"
     inkscape:window-height="707"
     inkscape:window-x="0"
     inkscape:window-y="31"
     inkscape:window-maximized="1" />
  <metadata
     id="metadata5">
    <rdf:RDF>
      <cc:Work
         rdf:about="">
        <dc:format>image/svg+xml</dc:format>
        <dc:type
           rdf:resource="http://purl.org/dc/dcmitype/StillImage" />
        <dc:title />
      </cc:Work>
    </rdf:RDF>
  </metadata>
  <g
     inkscape:label="Layer 1"
     inkscape:groupmode="layer"
     id="layer1">
    <g
       id="g1170"
       style="font-style:normal;font-weight:normal;font-size:83.5261px;line-height:1.25;font-family:sans-serif;fill:#5e81ac;fill-opacity:1;stroke:none;stroke-width:2.08816"
       transform="matrix(0.35277777,0,0,0.35277777,351.4766,254.28659)">
      <g
         id="g907">
        <rect
           style="fill:#ffffff;fill-opacity:1;stroke-width:1.53075"
           id="rect10-3"
           width="595.27557"
           height="841.88977"
           x="-996.31165"
           y="-720.81238" />
        <rect
           style="fill:#286dfc;fill-opacity:1;stroke-width:1.53075"
           id="rect10"
           width="595.27557"
           height="708.66144"
           x="-996.31165"
           y="-587.58405" />
        <g
           id="g1062"
           transform="matrix(1.4318097,0,0,1.4318097,442.46961,-224.84695)">
          <g
             id="g896"
             style="font-style:normal;font-weight:normal;font-size:83.5261px;line-height:1.25;font-family:sans-serif;fill:#222222;fill-opacity:1;stroke:none;stroke-width:2.08816"
             transform="matrix(0.24703682,0,0,0.24703682,-912.3113,-287.46488)">
            <g
               id="g1041"
               style="fill:#222222;fill-opacity:1">
              <path
                 d="m 34.063955,-54.089473 1.419944,5.178619 6.347983,-1.252892 -1.503469,-8.018505 c -3.758675,-2.338731 -8.018506,-3.424571 -13.197124,-3.424571 -8.519662,0 -15.285277,4.176305 -15.285277,11.526602 0,6.013879 4.677462,9.939606 12.779494,11.025445 l 4.343357,0.584683 c 5.262144,0.668209 6.765614,2.004627 6.765614,4.677462 0,3.341044 -4.092779,5.095092 -8.77024,5.095092 -2.756362,0 -5.429197,-0.584683 -7.93498,-1.9211 l -1.002313,-5.011566 -7.099719,1.336417 1.419944,8.686715 c 4.009253,2.255204 9.020819,3.758674 15.034698,3.758674 8.770241,0 15.869959,-4.259831 15.869959,-12.111284 0,-6.264458 -3.591622,-9.85608 -12.361863,-10.94192 l -4.426883,-0.584682 c -5.095092,-0.584683 -7.099719,-2.255205 -7.099719,-5.095092 0,-3.173992 3.675149,-4.844514 7.767928,-4.844514 2.839887,0 4.760987,0.501156 6.932666,1.336417 z"
                 style="font-style:normal;font-variant:normal;font-weight:600;font-stretch:normal;font-family:Podkova;-inkscape-font-specification:'Podkova Semi-Bold';fill:#222222;fill-opacity:1;stroke-width:2.08816"
                 id="path868" />
              <path
                 d="m 84.179521,-27.778751 -3.173992,-5.095092 c -3.42457,2.756361 -7.517349,4.259831 -12.278337,4.259831 -6.097405,0 -11.526601,-3.173992 -12.027758,-10.524289 l 28.398874,-0.08353 c 0.167052,-1.336417 0.334104,-2.839887 0.334104,-4.092779 0,-11.025445 -6.932666,-18.292216 -17.958111,-18.292216 -11.276024,0 -18.876899,8.018506 -18.876899,19.879212 0,12.111285 7.851454,19.795686 20.296843,19.795686 5.596248,0 10.607814,-1.837574 15.285276,-5.846827 z M 77.079802,-45.15218 H 56.866486 c 0.584683,-5.763301 5.178618,-9.772554 10.774867,-9.772554 5.763301,0 9.438449,4.009253 9.438449,9.772554 z"
                 style="font-style:normal;font-variant:normal;font-weight:600;font-stretch:normal;font-family:Podkova;-inkscape-font-specification:'Podkova Semi-Bold';fill:#222222;fill-opacity:1;stroke-width:2.08816"
                 id="path870" />
              <path
                 d="m 90.360312,-23.351868 h 22.384998 v -6.682088 h -7.0162 v -44.686463 l -14.533537,-4.092779 -2.004626,6.765614 8.185558,2.255205 v 39.758423 h -7.016193 z"
                 style="font-style:normal;font-variant:normal;font-weight:600;font-stretch:normal;font-family:Podkova;-inkscape-font-specification:'Podkova Semi-Bold';fill:#222222;fill-opacity:1;stroke-width:2.08816"
                 id="path872" />
              <path
                 d="m 144.98625,-25.356494 11.02544,3.758674 2.17168,-6.84914 -7.3503,-2.422257 v -14.115911 c 0,-10.858393 -5.67977,-16.621694 -16.20406,-16.621694 -4.51041,0 -8.93729,0.835261 -13.28065,2.422257 l -1.50347,8.35261 6.93267,1.08584 0.83526,-4.343358 c 2.08815,-0.668208 4.42688,-1.002313 7.01619,-1.002313 4.92804,0 7.76793,3.341044 7.76793,10.357237 l -9.85608,-0.08353 c -9.68903,0 -14.78412,3.925726 -14.78412,11.443075 0.0835,7.517349 5.34567,11.443076 15.3688,11.443076 4.09278,0 8.10203,-1.169365 11.86071,-3.42457 z m -12.19481,-13.531228 h 9.6055 v 7.851453 c -2.58931,1.754048 -5.67978,2.672835 -8.93729,2.672835 -4.67747,0 -7.09972,-1.670522 -7.09972,-5.178618 0,-3.42457 2.2552,-5.34567 6.43151,-5.34567 z"
                 style="font-style:normal;font-variant:normal;font-weight:600;font-stretch:normal;font-family:Podkova;-inkscape-font-specification:'Podkova Semi-Bold';fill:#222222;fill-opacity:1;stroke-width:2.08816"
                 id="path874" />
              <path
                 d="m 174.2202,-57.179938 -11.8607,-4.009253 -2.25521,6.765614 8.01851,2.672835 v 21.716786 h -7.0162 v 6.682088 h 23.55436 v -6.682088 h -8.18555 l 0.0835,-21.132103 c 2.42226,-1.586996 5.93036,-2.756361 9.6055,-2.923414 l 0.83526,4.593936 6.93267,-1.50347 -1.41994,-9.689027 c -1.16937,-0.501157 -2.83989,-0.751735 -4.92804,-0.751735 -4.42689,0 -9.10435,1.503469 -13.36418,4.259831 z"
                 style="font-style:normal;font-variant:normal;font-weight:600;font-stretch:normal;font-family:Podkova;-inkscape-font-specification:'Podkova Semi-Bold';fill:#222222;fill-opacity:1;stroke-width:2.08816"
                 id="path876" />
              <path
                 d="m 225.42166,-25.356494 11.02544,3.758674 2.17168,-6.84914 -7.3503,-2.422257 v -14.115911 c 0,-10.858393 -5.67977,-16.621694 -16.20406,-16.621694 -4.51041,0 -8.93729,0.835261 -13.28065,2.422257 l -1.50347,8.35261 6.93267,1.08584 0.83526,-4.343358 c 2.08815,-0.668208 4.42688,-1.002313 7.01619,-1.002313 4.92804,0 7.76793,3.341044 7.76793,10.357237 l -9.85608,-0.08353 c -9.68903,0 -14.78412,3.925726 -14.78412,11.443075 0.0835,7.517349 5.34567,11.443076 15.3688,11.443076 4.09278,0 8.10203,-1.169365 11.86071,-3.42457 z m -12.19481,-13.531228 h 9.6055 v 7.851453 c -2.58931,1.754048 -5.67978,2.672835 -8.93729,2.672835 -4.67747,0 -7.09972,-1.670522 -7.09972,-5.178618 0,-3.42457 2.2552,-5.34567 6.43151,-5.34567 z"
                 style="font-style:normal;font-variant:normal;font-weight:600;font-stretch:normal;font-family:Podkova;-inkscape-font-specification:'Podkova Semi-Bold';fill:#222222;fill-opacity:1;stroke-width:2.08816"
                 id="path878" />
              <path
                 d="m 243.63023,-78.813198 -2.17168,6.682088 7.93498,2.756361 v 39.340793 h -7.01619 v 6.682088 h 18.54279 v -6.682088 h -3.17399 v -8.436136 h 6.76561 l 9.2714,15.118224 h 11.5266 v -6.682088 h -7.01619 l -7.76793,-12.027758 7.09972,-11.443076 h 6.59856 v -6.598562 h -19.12748 v 6.598562 h 4.25984 l -4.92804,8.436136 h -6.68209 v -28.90003 z"
                 style="font-style:normal;font-variant:normal;font-weight:600;font-stretch:normal;font-family:Podkova;-inkscape-font-specification:'Podkova Semi-Bold';fill:#222222;fill-opacity:1;stroke-width:2.08816"
                 id="path880" />
              <path
                 d="m 310.20052,-21.931924 c 2.75636,0 5.67977,-1.002313 8.18555,-2.088152 l -1.58699,-6.097406 c -2.25521,1.08584 -3.92573,1.586996 -5.67978,1.586996 -4.34335,0 -5.67977,-4.259831 -5.67977,-11.025445 V -53.50479 h 10.19018 v -6.598562 h -10.19018 v -9.85608 l -8.10203,2.338731 v 7.517349 h -6.93267 v 6.598562 h 6.93267 v 17.039325 c 0,10.607814 5.51272,14.533541 12.86302,14.533541 z"
                 style="font-style:normal;font-variant:normal;font-weight:600;font-stretch:normal;font-family:Podkova;-inkscape-font-specification:'Podkova Semi-Bold';fill:#222222;fill-opacity:1;stroke-width:2.08816"
                 id="path882" />
              <path
                 d="m 350.79412,-25.356494 11.02545,3.758674 2.17168,-6.84914 -7.3503,-2.422257 v -14.115911 c 0,-10.858393 -5.67977,-16.621694 -16.20406,-16.621694 -4.51041,0 -8.9373,0.835261 -13.28065,2.422257 l -1.50347,8.35261 6.93266,1.08584 0.83527,-4.343358 c 2.08815,-0.668208 4.42688,-1.002313 7.01619,-1.002313 4.92804,0 7.76792,3.341044 7.76792,10.357237 l -9.85607,-0.08353 c -9.68903,0 -14.78412,3.925726 -14.78412,11.443075 0.0835,7.517349 5.34567,11.443076 15.3688,11.443076 4.09278,0 8.10203,-1.169365 11.8607,-3.42457 z m -12.19481,-13.531228 h 9.6055 v 7.851453 c -2.5893,1.754048 -5.67977,2.672835 -8.93729,2.672835 -4.67746,0 -7.09972,-1.670522 -7.09972,-5.178618 0,-3.42457 2.25521,-5.34567 6.43151,-5.34567 z"
                 style="font-style:normal;font-variant:normal;font-weight:600;font-stretch:normal;font-family:Podkova;-inkscape-font-specification:'Podkova Semi-Bold';fill:#222222;fill-opacity:1;stroke-width:2.08816"
                 id="path884" />
            </g>
          </g>
          <g
             id="g885"
             style="font-style:normal;font-weight:normal;font-size:83.5261px;line-height:1.25;font-family:sans-serif;fill:#d92632;fill-opacity:1;stroke:none;stroke-width:2.08816"
             transform="matrix(0.13756895,0,0,0.13756895,-960.19896,-266.83056)">
            <path
               style="fill:#d92632;fill-opacity:1;stroke:#bf616a;stroke-width:0.125036px;stroke-linecap:butt;stroke-linejoin:miter;stroke-opacity:1"
               d="m 136.91934,229.95524 c 2.07792,2.71957 5.08967,5.92968 8.473,9.25546 3.38333,3.32579 7.1381,6.76712 9.58891,9.14503 2.45082,2.37792 3.59757,3.6923 5.38164,5.22036 1.78408,1.52805 4.20527,3.26959 6.14155,5.09931 1.93629,1.82971 3.38755,3.74751 5.34944,5.59331 1.96189,1.84579 4.43426,3.61945 6.54224,4.94854 2.10797,1.32909 3.85144,2.21355 5.94388,2.0247 2.09243,-0.18885 4.53362,-1.45085 7.57252,-3.67671 3.0389,-2.22585 6.67534,-5.41538 9.41409,-7.90721 2.73876,-2.49184 4.57966,-4.28582 7.11709,-6.94951 2.53742,-2.6637 5.77119,-6.19691 8.29792,-8.6682 2.52672,-2.47128 4.34623,-3.88052 6.40722,-5.47435 2.06099,-1.59383 4.36332,-3.37216 6.44426,-5.78509 2.08095,-2.41294 3.94045,-5.4603 5.30407,-7.56609 1.36361,-2.10579 2.23127,-3.26993 2.52701,-4.71683 0.29573,-1.4469 0.0197,-3.1765 -0.6827,-4.56598 -0.70236,-1.38947 -1.83096,-2.43881 -5.35645,-5.43671 -3.52549,-2.9979 -9.44759,-7.94411 -14.11935,-12.22618 -4.67175,-4.28207 -8.09286,-7.89973 -10.84498,-10.87162 -2.75212,-2.97189 -4.83508,-5.29783 -6.20474,-7.00354 -1.36965,-1.7057 -2.02591,-2.79105 -3.56233,-4.53712 -1.53643,-1.74608 -3.95295,-4.15279 -6.58703,-5.77113 -2.63408,-1.61833 -5.48567,-2.44822 -8.46096,-1.83165 -2.97529,0.61657 -6.07416,2.67965 -8.9162,5.35915 -2.84204,2.6795 -5.42705,5.97531 -8.30942,9.75565 -2.88237,3.78034 -6.06191,8.04497 -9.13105,11.48122 -3.06915,3.43626 -6.02775,6.04391 -8.98902,9.01553 -2.96126,2.97162 -5.92502,6.30705 -8.2099,8.9878 -2.28487,2.68075 -3.89074,4.7067 -4.69374,6.25162 -0.803,1.54493 -0.803,2.60877 -0.23097,4.25525 0.57204,1.64648 1.71608,3.87543 3.794,6.59499 z"
               id="path28"
               inkscape:path-effect="#path-effect30"
               inkscape:original-d="m 135.98551,229.46471 c 3.01187,3.20999 6.02362,6.4201 9.03526,9.63032 3.75502,3.44133 7.50979,6.88266 11.26449,10.32417 1.14694,1.31433 2.2937,2.62871 3.44036,3.94328 2.42146,1.7415 4.84264,3.48306 7.2638,5.22479 1.45143,1.91775 2.90271,3.83554 4.35389,5.7535 2.47256,1.77359 4.94494,3.54724 7.41721,5.32106 1.74365,0.88436 3.48712,1.76881 5.23047,2.65341 2.44142,-1.26218 4.88261,-2.52418 7.3237,-3.78608 3.63672,-3.18978 7.27315,-6.37932 10.90957,-9.56879 1.84109,-1.7942 3.682,-3.58817 5.52285,-5.38207 3.23401,-3.53348 6.46779,-7.06669 9.70151,-10.59986 1.8197,-1.40942 3.63921,-2.81866 5.45866,-4.22781 2.30252,-1.77853 4.60486,-3.55684 6.90711,-5.33507 1.85969,-3.0476 3.7192,-6.09495 5.57859,-9.14222 0.86783,-1.16432 1.73548,-2.32846 2.60303,-3.4925 -0.27599,-1.7298 -0.55206,-3.4594 -0.82823,-5.18893 -1.12854,-1.04953 -2.25714,-2.09887 -3.38588,-3.14811 -5.92224,-4.94657 -11.84434,-9.89279 -17.76672,-14.83898 -3.42113,-3.61791 -6.84225,-7.23557 -10.26353,-10.85318 -2.08295,-2.32617 -4.1659,-4.65212 -6.24904,-6.97799 -0.65615,-1.08551 -1.31242,-2.17085 -1.96881,-3.25611 -2.41647,-2.40694 -4.833,-4.81364 -7.24969,-7.2203 -2.85155,-0.83004 -5.70313,-1.65994 -8.55489,-2.48971 -3.09889,2.06304 -6.19776,4.12612 -9.29682,6.18936 -2.58499,3.2958 -5.17001,6.5916 -7.75518,9.8876 -3.17955,4.26469 -6.35908,8.52933 -9.53881,12.79417 -2.95859,2.60765 -5.9172,5.21529 -8.87597,7.82311 -2.96374,3.33544 -5.92749,6.67088 -8.89145,10.00649 -1.6058,2.02588 -3.21167,4.05183 -4.81768,6.07792 1e-4,1.06375 1e-4,2.12759 0,3.19157 1.14419,2.22892 2.28824,4.45786 3.4322,6.68696 z"
               transform="scale(1,-1)" />
            <path
               style="fill:#d92632;fill-opacity:1;stroke:#bf616a;stroke-width:0.125036px;stroke-linecap:butt;stroke-linejoin:miter;stroke-opacity:1"
               d="m 108.61276,279.90966 c 1.5221,2.11783 4.39264,4.83629 6.83612,7.08365 2.44348,2.24736 4.45985,4.02357 6.05509,5.09934 1.59524,1.07577 2.76923,1.45106 4.46919,1.03166 1.69996,-0.4194 3.92572,-1.63337 5.83278,-3.79897 1.90706,-2.1656 3.49539,-5.28262 5.27469,-8.68453 1.7793,-3.4019 3.74946,-7.08851 5.3739,-10.28985 1.62444,-3.20135 2.90308,-5.91729 3.48871,-7.95336 0.58562,-2.03608 0.47828,-3.3922 -0.25658,-4.27253 -0.73486,-0.88034 -2.09729,-1.28499 -4.16627,-1.18179 -2.06898,0.1032 -4.84446,0.7143 -7.66071,1.71167 -2.81626,0.99738 -5.67315,2.38101 -8.12275,3.66279 -2.44961,1.28179 -4.49178,2.46165 -6.76132,3.7642 -2.26954,1.30256 -4.76629,2.72771 -6.4821,3.77477 -1.71581,1.04705 -2.65058,1.71598 -3.47876,2.46978 -0.82818,0.7538 -1.5497,1.59246 -1.82371,2.77037 -0.27401,1.17792 -0.10037,2.69497 1.42172,4.8128 z"
               id="path32-3"
               inkscape:path-effect="#path-effect34"
               inkscape:original-d="m 107.26432,279.30902 c 2.87066,2.71834 5.7412,5.4368 8.6116,8.15538 2.01656,1.77614 4.03293,3.55234 6.04919,5.32869 1.17415,0.37518 2.34814,0.75047 3.52204,1.1259 2.22594,-1.21414 4.4517,-2.4281 6.67737,-3.64196 1.58852,-3.11727 3.17686,-6.23429 4.76511,-9.35125 1.97033,-3.68686 3.94051,-7.37345 5.91057,-11.05998 1.27882,-2.71617 2.55745,-5.43211 3.83602,-8.14798 -0.10745,-1.35629 -0.21466,-2.71242 -0.32204,-4.06846 -1.36233,-0.40479 -2.72477,-0.80943 -4.08735,-1.21396 -2.77544,0.61101 -5.55092,1.22208 -8.32657,1.83332 -2.85687,1.38355 -5.71375,2.76719 -8.57084,4.15098 -2.04212,1.17979 -4.08429,2.35966 -6.12665,3.53968 -2.49672,1.42508 -4.99348,2.85022 -7.49041,4.27553 -0.93468,0.66883 -1.86944,1.33776 -2.80436,2.00683 -0.72141,0.83857 -1.44293,1.67722 -2.1646,2.51602 0.17391,1.51699 0.3474,3.03405 0.52092,4.55126 z"
               transform="scale(1,-1)" />
            <path
               style="fill:#d92632;fill-opacity:1;stroke:#bf616a;stroke-width:0.125036px;stroke-linecap:butt;stroke-linejoin:miter;stroke-opacity:1"
               d="m 248.18293,292.74664 c 1.6488,-1.59739 4.94624,-4.79202 7.3296,-7.16787 2.38336,-2.37585 3.85258,-3.93285 4.58985,-5.52928 0.73727,-1.59644 0.74267,-3.23218 -0.0205,-4.6726 -0.7632,-1.44043 -2.29494,-2.68558 -4.82837,-4.18136 -2.53342,-1.49578 -6.06839,-3.2421 -9.86677,-5.50522 -3.79838,-2.26312 -7.85996,-5.04291 -11.17767,-6.61831 -3.31771,-1.5754 -5.89147,-1.94636 -7.17844,-1.25156 -1.28696,0.6948 -1.28696,2.45544 -0.76809,4.67611 0.51887,2.22067 1.55659,4.90115 2.8684,7.90207 1.31181,3.00092 2.89761,6.32208 4.69653,9.62024 1.79892,3.29816 3.81084,6.5731 5.14225,8.85167 1.33142,2.27857 1.98227,3.56067 3.12952,4.30688 1.14724,0.7462 2.79067,0.95642 3.61236,1.06152 0.82169,0.1051 0.82255,0.1051 2.47135,-1.49229 z"
               id="path36"
               inkscape:path-effect="#path-effect38"
               inkscape:original-d="m 246.53413,294.34403 c 3.29761,-3.19477 6.59505,-6.3894 9.89235,-9.58391 1.46941,-1.5572 2.93862,-3.11421 4.40777,-4.67112 0.007,-1.63594 0.0116,-3.27169 0.0162,-4.90735 -1.53167,-1.24533 -3.06341,-2.49049 -4.59534,-3.73554 -3.53496,-1.74652 -7.06993,-3.49284 -10.6051,-5.23907 -4.06157,-2.78 -8.12315,-5.55978 -12.18491,-8.33948 -2.57374,-0.37111 -5.1475,-0.74208 -7.72145,-1.11291 1.2e-4,1.76059 1.2e-4,3.52123 0,5.28205 1.0379,2.68046 2.07561,5.36094 3.11323,8.0416 1.586,3.32117 3.17182,6.64232 4.75751,9.96367 2.01212,3.27496 4.02402,6.54991 6.03588,9.82504 0.65096,1.28203 1.30184,2.56412 1.95259,3.84637 1.64362,0.2101 3.28705,0.42031 4.93041,0.63065 z"
               transform="scale(1,-1)" />
            <path
               style="fill:#d92632;fill-opacity:1;stroke:#bf616a;stroke-width:0.125036px;stroke-linecap:butt;stroke-linejoin:miter;stroke-opacity:1"
               d="m 236.80769,183.73641 c 3.60538,-1.93828 9.14757,-5.1669 13.61296,-7.88246 4.46538,-2.71555 7.85379,-4.91792 10.33958,-6.66545 2.48579,-1.74752 4.06884,-3.04009 5.32231,-4.5898 1.25347,-1.54971 2.17739,-3.35645 1.55041,-5.4462 -0.62699,-2.08975 -2.80473,-4.46253 -4.78329,-6.26796 -1.97855,-1.80542 -3.75783,-3.04343 -5.59283,-4.50108 -1.835,-1.45764 -3.7256,-3.13481 -5.77162,-3.36148 -2.04601,-0.22666 -4.24748,0.99727 -6.01897,2.85604 -1.77148,1.85877 -3.11283,4.35234 -4.82267,7.08492 -1.70985,2.73258 -3.78814,5.70406 -5.6338,8.46345 -1.84567,2.75939 -3.45862,5.30659 -4.65388,7.67961 -1.19527,2.37301 -1.97276,4.57173 -2.63765,6.11335 -0.66489,1.54162 -1.21719,2.42608 -1.49339,3.39599 -0.2762,0.9699 -0.2762,2.02519 0.37655,3.09868 0.65276,1.07349 1.95819,2.165 3.44529,2.38677 1.4871,0.22177 3.15562,-0.42611 6.761,-2.36438 z"
               id="path40"
               inkscape:path-effect="#path-effect42"
               inkscape:original-d="m 234.87072,185.02684 c 5.54232,-3.22876 11.08451,-6.45738 16.62661,-9.68588 3.38868,-2.2026 6.7771,-4.40495 10.16544,-6.60725 1.58324,-1.29274 3.16628,-2.58532 4.7492,-3.87775 0.92408,-1.80695 1.84802,-3.61368 2.77182,-5.42034 -2.17769,-2.37299 -4.35544,-4.74577 -6.53333,-7.11844 -1.77927,-1.23818 -3.55854,-2.4762 -5.33797,-3.71413 -1.89056,-1.67735 -3.78114,-3.35454 -5.67191,-5.03162 -2.2014,1.22385 -4.40287,2.44779 -6.60452,3.67187 -1.34125,2.49352 -2.6826,4.98709 -4.02408,7.4808 -2.07825,2.97143 -4.15652,5.94292 -6.23496,8.91454 -1.61286,2.54718 -3.22581,5.09438 -4.83893,7.64172 -0.77738,2.19868 -1.5549,4.39739 -2.33251,6.59627 -0.5522,0.88436 -1.1045,1.76882 -1.65693,2.65342 1.4e-4,1.05519 1.4e-4,2.11048 0,3.16589 1.30561,1.09145 2.61104,2.18296 3.91638,3.2746 1.66874,-0.64802 3.33725,-1.29593 5.00569,-1.9437 z"
               transform="scale(1,-1)" />
            <path
               style="fill:#d92632;fill-opacity:1;stroke:#bf616a;stroke-width:0.125036px;stroke-linecap:butt;stroke-linejoin:miter;stroke-opacity:1"
               d="m 112.62645,150.38623 c 1.94986,-1.81885 5.84946,-5.45645 8.92742,-7.87394 3.07797,-2.41749 5.33424,-3.6149 7.20517,-3.88854 1.87094,-0.27363 3.35651,0.37638 4.94797,2.42142 1.59145,2.04504 3.28873,5.48498 5.7045,9.78355 2.41577,4.29857 5.54984,9.45541 7.45078,13.18528 1.90095,3.72987 2.56868,6.03262 2.90736,8.29525 0.33867,2.26264 0.34823,4.48509 -0.28321,5.89944 -0.63144,1.41435 -1.904,2.0205 -3.18277,2.03365 -1.27876,0.0132 -2.56356,-0.56676 -5.07946,-1.70302 -2.51589,-1.13627 -6.26273,-2.82881 -9.34361,-4.4658 -3.08088,-1.637 -5.49561,-3.21834 -8.52396,-5.36808 -3.02835,-2.14973 -6.6701,-4.8677 -9.07291,-6.72074 -2.40281,-1.85303 -3.56651,-2.84102 -3.96116,-4.32689 -0.39465,-1.48587 -0.0202,-3.46936 0.16696,-4.46105 0.18719,-0.99168 0.18706,-0.99168 2.13692,-2.81053 z"
               id="path48"
               inkscape:path-effect="#path-effect50"
               inkscape:original-d="m 110.67659,152.20508 c 3.89971,-3.63771 7.79931,-7.27531 11.69878,-10.91276 2.25644,-1.19757 4.51272,-2.39497 6.76889,-3.59228 1.48577,0.64995 2.97136,1.29994 4.45686,1.9501 1.6975,3.43999 3.39477,6.87994 5.09197,10.3201 3.13435,5.15695 6.26839,10.31381 9.40242,15.47089 0.66789,2.30269 1.33562,4.60544 2.00324,6.90838 0.009,2.22238 0.0185,4.44483 0.0287,6.66744 -1.27247,0.60604 -2.54504,1.21217 -3.81775,1.81847 -1.28473,-0.58006 -2.56953,-1.15998 -3.85444,-1.73978 -3.74687,-1.69274 -7.49372,-3.38526 -11.24075,-5.07773 -2.4147,-1.58153 -4.82942,-3.16288 -7.24432,-4.74413 -3.64179,-2.71822 -7.28355,-5.43618 -10.92555,-8.15411 -1.16361,-0.98814 -2.32732,-1.97611 -3.49117,-2.96401 0.37454,-1.9837 0.74897,-3.96719 1.12325,-5.95058 z"
               transform="scale(1,-1)" />
            <path
               style="fill:#d92632;fill-opacity:1;stroke:#bf616a;stroke-width:0.125036px;stroke-linecap:butt;stroke-linejoin:miter;stroke-opacity:1"
               d="m 166.71886,336.41047 c 1.10845,1.84963 3.07177,4.38622 4.82883,6.55424 1.75706,2.16802 3.30778,3.96737 4.77689,5.50983 1.4691,1.54247 2.85649,2.82793 4.29178,3.33115 1.4353,0.50322 2.91829,0.22421 5.01096,-1.13411 2.09267,-1.35833 4.79495,-3.7958 6.70116,-6.03291 1.90621,-2.23711 3.01632,-4.27372 3.79169,-5.65897 0.77537,-1.38525 1.21596,-2.11908 1.49296,-4.27019 0.27701,-2.15112 0.3905,-5.71941 0.6492,-8.52649 0.25869,-2.80709 0.66253,-4.85281 0.74444,-6.25594 0.0819,-1.40313 -0.15807,-2.16367 -0.34289,-3.00602 -0.18482,-0.84234 -0.3145,-1.76645 -2.48319,-4.51524 -2.16869,-2.74878 -6.37623,-7.32215 -9.64735,-9.32932 -3.27113,-2.00717 -5.60579,-1.44803 -7.57617,-0.50921 -1.97039,0.93882 -3.57634,2.25733 -5.66784,4.7664 -2.0915,2.50906 -4.6684,6.20854 -6.11367,9.3498 -1.44528,3.14127 -1.75881,5.72416 -1.91558,8.22317 -0.15678,2.49901 -0.15678,4.91398 -0.03,6.7028 0.12677,1.78883 0.38034,2.95138 1.48878,4.80101 z"
               id="path52"
               inkscape:path-effect="#path-effect54"
               inkscape:original-d="m 165.86401,335.72352 c 1.96344,2.53647 3.92676,5.07306 5.88994,7.60978 1.55094,1.79931 3.10165,3.59867 4.65229,5.39819 1.38756,1.28539 2.77495,2.57085 4.16224,3.85646 1.48316,-0.27914 2.96615,-0.55814 4.44901,-0.83703 2.70249,-2.43768 5.40478,-4.87514 8.10697,-7.31252 1.11028,-2.03682 2.22038,-4.07343 3.33039,-6.10996 0.44072,-0.73397 0.88133,-1.46779 1.32178,-2.2015 0.11347,-3.56855 0.22717,-7.13683 0.3405,-10.70506 0.40397,-2.04593 0.80783,-4.09165 1.21155,-6.13729 -0.23986,-0.76069 -0.47981,-1.52123 -0.71993,-2.28165 -0.12944,-0.92426 -0.25924,-1.84835 -0.38903,-2.77234 -4.20759,-4.57368 -8.41512,-9.14706 -12.62289,-13.7204 -2.33464,0.55904 -4.6693,1.11818 -7.00418,1.67746 -1.60587,1.31844 -3.21183,2.63695 -4.81793,3.95561 -2.57686,3.6995 -5.15377,7.39897 -7.73082,11.09864 -0.31341,2.58286 -0.62693,5.16575 -0.9406,7.74881 1.4e-4,2.41495 1.4e-4,4.82992 0,7.24506 0.25369,1.16248 0.50726,2.32503 0.76071,3.48774 z"
               transform="scale(1,-1)" />
            <path
               style="fill:#d92632;fill-opacity:1;stroke:#bf616a;stroke-width:0.610666px;stroke-linecap:butt;stroke-linejoin:miter;stroke-opacity:1"
               d="m 173.77074,156.47921 c 0.81838,0.67965 2.1062,1.06772 3.39116,1.22197 1.28497,0.15426 2.56678,0.0748 4.05082,0.23913 1.48404,0.16428 3.1704,0.57207 5.09082,0.65176 1.92042,0.0797 4.07456,-0.16854 5.33347,-1.01076 1.25891,-0.84222 1.62303,-2.27775 1.50313,-4.43256 -0.11989,-2.15482 -0.7235,-5.02905 -1.21847,-7.2188 -0.49497,-2.18975 -0.88127,-3.69496 -1.26768,-5.38793 -0.38641,-1.69297 -0.77292,-3.57358 -1.59337,-5.50262 -0.82044,-1.92905 -2.07474,-3.9067 -2.92089,-5.10976 -0.84614,-1.20306 -1.28417,-1.63159 -1.83891,-1.36457 -0.55474,0.26703 -1.22663,1.23029 -2.15148,2.27933 -0.92486,1.04903 -2.10274,2.1837 -2.98395,3.42631 -0.8812,1.24261 -1.46538,2.59326 -2.37135,4.73414 -0.90596,2.14089 -2.13364,5.07187 -2.94373,7.67911 -0.81009,2.60723 -1.20235,4.89049 -1.22438,6.51769 -0.022,1.62719 0.32642,2.59792 1.14481,3.27756 z"
               id="path953"
               inkscape:path-effect="#path-effect955"
               inkscape:original-d="m 173.30093,156.77067 c 1.28841,0.38746 2.57622,0.77555 3.86342,1.16421 1.28248,-0.0801 2.56429,-0.15955 3.84555,-0.23821 1.68703,0.40721 3.37339,0.81499 5.05917,1.22341 2.15483,-0.24887 4.30897,-0.49709 6.46254,-0.74471 0.36475,-1.43617 0.72885,-2.8717 1.09237,-4.30662 -0.60303,-2.87497 -1.20665,-5.74919 -1.81086,-8.62286 -0.3857,-1.50588 -0.77201,-3.01108 -1.15891,-4.51569 -0.38594,-1.88129 -0.77245,-3.7619 -1.15957,-5.64194 -1.25376,-1.97835 -2.50806,-3.95601 -3.76301,-5.93313 -0.43746,-0.42914 -0.87547,-0.85769 -1.31411,-1.28563 -0.67132,0.96268 -1.3432,1.92595 -2.01573,2.88983 -1.17732,1.13409 -2.3552,2.26876 -3.53373,3.40406 -0.58358,1.35005 -1.16776,2.70071 -1.75255,4.05196 -1.22711,2.93052 -2.4548,5.8615 -3.68314,8.7932 -0.39163,2.28273 -0.78391,4.56599 -1.17679,6.84989 0.34906,0.97014 0.69751,1.94086 1.04535,2.91223 z"
               transform="scale(1,-1)" />
          </g>
        </g>
      </g>
      <text
         xml:space="preserve"
         id="text60"
         style="fill:black;fill-opacity:1;line-height:1.25;stroke:none;font-family:sans-serif;font-style:normal;font-weight:normal;font-size:30.00000074px;white-space:pre;shape-inside:url(#rect62);" />
    </g>
  </g>
</svg>
