<?xml version="1.0" encoding="UTF-8" standalone="no"?>
<svg
   xmlns:dc="http://purl.org/dc/elements/1.1/"
   xmlns:cc="http://creativecommons.org/ns#"
   xmlns:rdf="http://www.w3.org/1999/02/22-rdf-syntax-ns#"
   xmlns:svg="http://www.w3.org/2000/svg"
   xmlns="http://www.w3.org/2000/svg"
   xmlns:sodipodi="http://sodipodi.sourceforge.net/DTD/sodipodi-0.dtd"
   xmlns:inkscape="http://www.inkscape.org/namespaces/inkscape"
   width="21cm"
   height="29.700001cm"
   viewBox="0 0 210 297"
   version="1.1"
   id="svg8"
   inkscape:version="1.0.2 (e86c870879, 2021-01-15)"
   sodipodi:docname="portofolio-chapter-tentang-penulis.svg">
  <defs
     id="defs2" />
  <sodipodi:namedview
     id="base"
     pagecolor="#ffffff"
     bordercolor="#666666"
     borderopacity="1.0"
     inkscape:pageopacity="0.0"
     inkscape:pageshadow="2"
     inkscape:zoom="0.54"
     inkscape:cx="969.38864"
     inkscape:cy="678.54719"
     inkscape:document-units="cm"
     inkscape:current-layer="text24"
     inkscape:document-rotation="0"
     showgrid="false"
     units="cm"
     inkscape:window-width="1366"
     inkscape:window-height="707"
     inkscape:window-x="0"
     inkscape:window-y="31"
     inkscape:window-maximized="1" />
  <metadata
     id="metadata5">
    <rdf:RDF>
      <cc:Work
         rdf:about="">
        <dc:format>image/svg+xml</dc:format>
        <dc:type
           rdf:resource="http://purl.org/dc/dcmitype/StillImage" />
        <dc:title />
      </cc:Work>
    </rdf:RDF>
  </metadata>
  <g
     inkscape:label="Layer 1"
     inkscape:groupmode="layer"
     id="layer1">
    <g
       aria-label="ESAI"
       id="text857"
       style="font-style:normal;font-weight:normal;font-size:16.9333px;line-height:1.25;font-family:sans-serif;fill:#286dfc;fill-opacity:1;stroke:none;stroke-width:0.264583">
      <g
         aria-label="ESAI"
         id="text27"
         style="font-style:normal;font-weight:normal;font-size:14.1111px;line-height:1.25;font-family:sans-serif;fill:#286dfc;fill-opacity:0.960784;stroke:none;stroke-width:0.0700042">
        <g
           aria-label="TENTANG PENULIS"
           id="text24"
           style="font-style:normal;font-weight:normal;font-size:14.1111px;line-height:1.25;font-family:sans-serif;fill:#286dfc;fill-opacity:1;stroke:none;stroke-width:0.0185219">
          <g
             id="g927">
            <g
               id="g23"
               style="font-style:normal;font-weight:normal;font-size:16.9333px;line-height:1.25;font-family:sans-serif;fill:#286dfc;fill-opacity:1;stroke:none;stroke-width:0.264583">
              <rect
                 style="fill:#ffffff;fill-opacity:1;stroke-width:0.540015"
                 id="rect10"
                 width="210"
                 height="297"
                 x="2.7550593e-07"
                 y="4.2043412e-06" />
              <rect
                 style="fill:#286dfc;fill-opacity:1;stroke:none;stroke-width:0.51963;stroke-opacity:1"
                 id="rect10-3"
                 width="77.778"
                 height="297"
                 x="0"
                 y="4.2043412e-06" />
            </g>
            <g
               id="g904">
              <path
                 d="m 99.651896,257.91646 h -2.638941 v 8.94346 h -1.260904 v -8.94346 H 93.12 v -1.08865 h 6.531896 z"
                 style="font-style:normal;font-variant:normal;font-weight:normal;font-stretch:normal;font-size:14.1111px;font-family:'Roboto Condensed';-inkscape-font-specification:'Roboto Condensed, ';fill:#286dfc;fill-opacity:1;stroke-width:0.0185219"
                 id="path861" />
              <path
                 d="m 105.94264,262.22283 h -3.54845 v 3.55534 h 4.13411 v 1.08175 h -5.39501 v -10.03211 h 5.32611 v 1.08865 h -4.06521 v 3.22461 h 3.54845 z"
                 style="font-style:normal;font-variant:normal;font-weight:normal;font-stretch:normal;font-size:14.1111px;font-family:'Roboto Condensed';-inkscape-font-specification:'Roboto Condensed, ';fill:#286dfc;fill-opacity:1;stroke-width:0.0185219"
                 id="path863" />
              <path
                 d="m 114.69317,266.85992 h -1.26779 l -4.01698,-7.73078 v 7.73078 h -1.2678 v -10.03211 h 1.2678 l 4.03076,7.76524 v -7.76524 h 1.25401 z"
                 style="font-style:normal;font-variant:normal;font-weight:normal;font-stretch:normal;font-size:14.1111px;font-family:'Roboto Condensed';-inkscape-font-specification:'Roboto Condensed, ';fill:#286dfc;fill-opacity:1;stroke-width:0.0185219"
                 id="path865" />
              <path
                 d="m 122.54109,257.91646 h -2.63894 v 8.94346 h -1.2609 v -8.94346 h -2.63205 v -1.08865 h 6.53189 z"
                 style="font-style:normal;font-variant:normal;font-weight:normal;font-stretch:normal;font-size:14.1111px;font-family:'Roboto Condensed';-inkscape-font-specification:'Roboto Condensed, ';fill:#286dfc;fill-opacity:1;stroke-width:0.0185219"
                 id="path867" />
              <path
                 d="m 128.15659,264.24165 h -3.38997 l -0.77859,2.61827 h -1.29535 l 3.23149,-10.03211 h 1.08176 l 3.23839,10.03211 h -1.29535 z m -3.05924,-1.08865 h 2.73541 l -1.37115,-4.5613 z"
                 style="font-style:normal;font-variant:normal;font-weight:normal;font-stretch:normal;font-size:14.1111px;font-family:'Roboto Condensed';-inkscape-font-specification:'Roboto Condensed, ';fill:#286dfc;fill-opacity:1;stroke-width:0.0185219"
                 id="path869" />
              <path
                 d="m 138.16114,266.85992 h -1.26779 l -4.01698,-7.73078 v 7.73078 h -1.26779 v -10.03211 h 1.26779 l 4.03076,7.76524 v -7.76524 h 1.25401 z"
                 style="font-style:normal;font-variant:normal;font-weight:normal;font-stretch:normal;font-size:14.1111px;font-family:'Roboto Condensed';-inkscape-font-specification:'Roboto Condensed, ';fill:#286dfc;fill-opacity:1;stroke-width:0.0185219"
                 id="path871" />
              <path
                 d="m 146.62229,265.6128 -0.22048,0.27561 q -0.95085,1.10932 -2.78364,1.10932 -1.62608,0 -2.55626,-1.07487 -0.92328,-1.08176 -0.94395,-3.05235 v -1.9706 q 0,-2.10839 0.8406,-3.1557 0.84749,-1.0542 2.5287,-1.0542 1.43316,0 2.23931,0.79926 0.81304,0.79926 0.89572,2.28065 h -1.2609 q -0.0758,-0.93706 -0.52366,-1.46072 -0.44097,-0.53054 -1.34358,-0.53054 -1.08176,0 -1.58475,0.70969 -0.50298,0.7028 -0.52365,2.25309 v 2.04638 q 0,1.51585 0.57878,2.32889 0.57877,0.80615 1.66053,0.80615 1.01975,0 1.55029,-0.49609 l 0.18604,-0.17226 v -2.3151 h -1.83279 v -1.07487 h 3.09369 z"
                 style="font-style:normal;font-variant:normal;font-weight:normal;font-stretch:normal;font-size:14.1111px;font-family:'Roboto Condensed';-inkscape-font-specification:'Roboto Condensed, ';fill:#286dfc;fill-opacity:1;stroke-width:0.0185219"
                 id="path873" />
              <path
                 d="m 153.17486,262.93252 v 3.9274 h -1.26091 v -10.03211 h 3.19705 q 1.39871,0 2.19797,0.84061 0.79926,0.83371 0.79926,2.22553 0,1.44694 -0.76481,2.23242 -0.75792,0.77859 -2.14285,0.80615 z m 0,-1.08176 h 1.93614 q 0.8406,0 1.28847,-0.50298 0.44786,-0.50299 0.44786,-1.44005 0,-0.90262 -0.46165,-1.44694 -0.46164,-0.54433 -1.26779,-0.54433 h -1.94303 z"
                 style="font-style:normal;font-variant:normal;font-weight:normal;font-stretch:normal;font-size:14.1111px;font-family:'Roboto Condensed';-inkscape-font-specification:'Roboto Condensed, ';fill:#286dfc;fill-opacity:1;stroke-width:0.0185219"
                 id="path875" />
              <path
                 d="m 164.54367,262.22283 h -3.54845 v 3.55534 h 4.13411 v 1.08175 h -5.39501 v -10.03211 h 5.32611 v 1.08865 h -4.06521 v 3.22461 h 3.54845 z"
                 style="font-style:normal;font-variant:normal;font-weight:normal;font-stretch:normal;font-size:14.1111px;font-family:'Roboto Condensed';-inkscape-font-specification:'Roboto Condensed, ';fill:#286dfc;fill-opacity:1;stroke-width:0.0185219"
                 id="path877" />
              <path
                 d="m 173.2942,266.85992 h -1.26779 l -4.01698,-7.73078 v 7.73078 h -1.2678 v -10.03211 h 1.2678 l 4.03076,7.76524 v -7.76524 h 1.25401 z"
                 style="font-style:normal;font-variant:normal;font-weight:normal;font-stretch:normal;font-size:14.1111px;font-family:'Roboto Condensed';-inkscape-font-specification:'Roboto Condensed, ';fill:#286dfc;fill-opacity:1;stroke-width:0.0185219"
                 id="path879" />
              <path
                 d="m 181.45907,256.82781 v 7.13135 q -0.0138,1.42626 -0.82682,2.23242 -0.81304,0.80615 -2.26687,0.80615 -1.48828,0 -2.27376,-0.78548 -0.78549,-0.79237 -0.79927,-2.25309 v -7.13135 h 1.25402 v 7.08311 q 0,1.01286 0.42719,1.51585 0.43408,0.49609 1.39182,0.49609 0.96462,0 1.39181,-0.49609 0.43409,-0.50299 0.43409,-1.51585 v -7.08311 z"
                 style="font-style:normal;font-variant:normal;font-weight:normal;font-stretch:normal;font-size:14.1111px;font-family:'Roboto Condensed';-inkscape-font-specification:'Roboto Condensed, ';fill:#286dfc;fill-opacity:1;stroke-width:0.0185219"
                 id="path881" />
              <path
                 d="m 184.6699,265.77817 h 3.93429 v 1.08175 h -5.20209 v -10.03211 h 1.2678 z"
                 style="font-style:normal;font-variant:normal;font-weight:normal;font-stretch:normal;font-size:14.1111px;font-family:'Roboto Condensed';-inkscape-font-specification:'Roboto Condensed, ';fill:#286dfc;fill-opacity:1;stroke-width:0.0185219"
                 id="path883" />
              <path
                 d="m 191.42227,266.85992 h -1.2609 v -10.03211 h 1.2609 z"
                 style="font-style:normal;font-variant:normal;font-weight:normal;font-stretch:normal;font-size:14.1111px;font-family:'Roboto Condensed';-inkscape-font-specification:'Roboto Condensed, ';fill:#286dfc;fill-opacity:1;stroke-width:0.0185219"
                 id="path885" />
              <path
                 d="m 198.01619,264.32434 q 0,-0.75103 -0.40652,-1.15067 -0.40653,-0.39963 -1.46761,-0.77859 -1.06109,-0.37896 -1.62609,-0.79237 -0.5581,-0.4203 -0.8406,-0.95084 -0.27561,-0.53744 -0.27561,-1.22646 0,-1.192 0.79237,-1.9637 0.79926,-0.7717 2.08773,-0.7717 0.88194,0 1.57096,0.39963 0.68902,0.39274 1.06109,1.09554 0.37207,0.7028 0.37207,1.5434 h -1.26779 q 0,-0.93017 -0.44787,-1.44005 -0.44786,-0.50987 -1.28846,-0.50987 -0.76481,0 -1.18511,0.42719 -0.4203,0.42719 -0.4203,1.19889 0,0.6339 0.45475,1.06109 0.45475,0.42719 1.4056,0.76481 1.48139,0.48921 2.11528,1.20579 0.64079,0.71657 0.64079,1.87413 0,1.21956 -0.79237,1.95681 -0.79237,0.73036 -2.15663,0.73036 -0.87505,0 -1.61919,-0.37896 -0.73725,-0.38585 -1.16444,-1.07487 -0.42031,-0.69591 -0.42031,-1.59163 h 1.2678 q 0,0.93017 0.51676,1.44693 0.52366,0.51677 1.41938,0.51677 0.83371,0 1.25401,-0.42719 0.42031,-0.42719 0.42031,-1.16444 z"
                 style="font-style:normal;font-variant:normal;font-weight:normal;font-stretch:normal;font-size:14.1111px;font-family:'Roboto Condensed';-inkscape-font-specification:'Roboto Condensed, ';fill:#286dfc;fill-opacity:1;stroke-width:0.0185219"
                 id="path887" />
            </g>
          </g>
        </g>
      </g>
    </g>
  </g>
</svg>
