<?xml version="1.0" encoding="UTF-8" standalone="no"?>
<svg
   xmlns:dc="http://purl.org/dc/elements/1.1/"
   xmlns:cc="http://creativecommons.org/ns#"
   xmlns:rdf="http://www.w3.org/1999/02/22-rdf-syntax-ns#"
   xmlns:svg="http://www.w3.org/2000/svg"
   xmlns="http://www.w3.org/2000/svg"
   xmlns:sodipodi="http://sodipodi.sourceforge.net/DTD/sodipodi-0.dtd"
   xmlns:inkscape="http://www.inkscape.org/namespaces/inkscape"
   width="21cm"
   height="29.700001cm"
   viewBox="0 0 210 297"
   version="1.1"
   id="svg8"
   inkscape:version="1.0.2 (e86c870879, 2021-01-15)"
   sodipodi:docname="portofolio-chapter-resensi.svg">
  <defs
     id="defs2" />
  <sodipodi:namedview
     id="base"
     pagecolor="#ffffff"
     bordercolor="#666666"
     borderopacity="1.0"
     inkscape:pageopacity="0.0"
     inkscape:pageshadow="2"
     inkscape:zoom="0.54"
     inkscape:cx="642.53679"
     inkscape:cy="854.28028"
     inkscape:document-units="cm"
     inkscape:current-layer="text27"
     inkscape:document-rotation="0"
     showgrid="false"
     units="cm"
     inkscape:window-width="1366"
     inkscape:window-height="707"
     inkscape:window-x="0"
     inkscape:window-y="31"
     inkscape:window-maximized="1" />
  <metadata
     id="metadata5">
    <rdf:RDF>
      <cc:Work
         rdf:about="">
        <dc:format>image/svg+xml</dc:format>
        <dc:type
           rdf:resource="http://purl.org/dc/dcmitype/StillImage" />
        <dc:title />
      </cc:Work>
    </rdf:RDF>
  </metadata>
  <g
     inkscape:label="Layer 1"
     inkscape:groupmode="layer"
     id="layer1">
    <g
       aria-label="ESAI"
       id="text857"
       style="font-style:normal;font-weight:normal;font-size:16.9333px;line-height:1.25;font-family:sans-serif;fill:#286dfc;fill-opacity:1;stroke:none;stroke-width:0.264583">
      <g
         aria-label="ESAI"
         id="text27"
         style="font-style:normal;font-weight:normal;font-size:14.1111px;line-height:1.25;font-family:sans-serif;fill:#286dfc;fill-opacity:0.960784;stroke:none;stroke-width:0.0700042">
        <g
           id="g895">
          <g
             id="g23"
             style="font-style:normal;font-weight:normal;font-size:16.9333px;line-height:1.25;font-family:sans-serif;fill:#286dfc;fill-opacity:1;stroke:none;stroke-width:0.264583">
            <rect
               style="fill:#ffffff;fill-opacity:1;stroke-width:0.540015"
               id="rect10"
               width="210"
               height="297"
               x="2.7550593e-07"
               y="4.2043412e-06" />
            <rect
               style="fill:#286dfc;fill-opacity:1;stroke:none;stroke-width:0.51963;stroke-opacity:1"
               id="rect10-3"
               width="77.778"
               height="297"
               x="0"
               y="4.2043412e-06" />
          </g>
          <g
             aria-label="RESENSI"
             id="text23"
             style="font-style:normal;font-variant:normal;font-weight:normal;font-stretch:normal;font-size:14.1111px;line-height:1.25;font-family:'Roboto Condensed';-inkscape-font-specification:'Roboto Condensed, ';fill:#286dfc;fill-opacity:1;stroke:none;stroke-width:0.0185219"
             transform="translate(-9.9802508,-58.76628)">
            <g
               id="g870"
               transform="translate(113.47282,-28.220999)">
              <path
                 d="m -7.3408847,349.78888 h -1.7638888 v 4.05832 h -1.2677955 v -10.03212 h 2.8111982 q 1.4745009,0 2.2324219,0.7717 0.7579209,0.76481 0.7579209,2.2462 0,0.93018 -0.4134114,1.62609 -0.4065213,0.68902 -1.1575521,1.04042 l 1.9430338,4.26503 v 0.0827 h -1.3573675 z m -1.7638888,-1.08176 h 1.5296224 q 0.7923719,0 1.2609049,-0.50988 0.4754231,-0.50987 0.4754231,-1.36426 0,-1.92925 -1.7501084,-1.92925 h -1.515842 z"
                 style="font-style:normal;font-variant:normal;font-weight:normal;font-stretch:normal;font-size:14.1111px;font-family:'Roboto Condensed';-inkscape-font-specification:'Roboto Condensed, ';fill:#286dfc;fill-opacity:1;stroke-width:0.0185219"
                 id="path848" />
              <path
                 d="m 1.9264219,349.2101 h -3.5484482 v 3.55534 h 4.1341145 v 1.08176 h -5.3950194 v -10.03212 h 5.3261174 v 1.08865 h -4.0652125 v 3.22461 h 3.5484482 z"
                 style="font-style:normal;font-variant:normal;font-weight:normal;font-stretch:normal;font-size:14.1111px;font-family:'Roboto Condensed';-inkscape-font-specification:'Roboto Condensed, ';fill:#286dfc;fill-opacity:1;stroke-width:0.0185219"
                 id="path850" />
              <path
                 d="m 8.5065543,351.31161 q 0,-0.75103 -0.4065212,-1.15066 -0.4065213,-0.39963 -1.4676107,-0.7786 -1.0610893,-0.37896 -1.626085,-0.79237 -0.5581054,-0.4203 -0.8406032,-0.95084 -0.2756077,-0.53744 -0.2756077,-1.22646 0,-1.192 0.792372,-1.9637 0.7992621,-0.7717 2.0877278,-0.7717 0.8819444,0 1.5709635,0.39963 0.689019,0.39274 1.0610893,1.09554 0.3720703,0.7028 0.3720703,1.5434 H 8.5065543 q 0,-0.93017 -0.4478624,-1.44005 -0.4478624,-0.50987 -1.2884656,-0.50987 -0.7648112,0 -1.1851129,0.42719 -0.4203016,0.42719 -0.4203016,1.19889 0,0.6339 0.4547526,1.06109 0.4547526,0.42719 1.4055989,0.76481 1.481391,0.48921 2.1152886,1.20579 0.6407877,0.71658 0.6407877,1.87413 0,1.21956 -0.7923719,1.95681 -0.792372,0.73036 -2.1566297,0.73036 -0.8750542,0 -1.6191949,-0.37896 -0.7372504,-0.38585 -1.1644422,-1.07487 -0.4203016,-0.69591 -0.4203016,-1.59163 h 1.2677951 q 0,0.93017 0.5167643,1.44694 0.5236545,0.51676 1.4193793,0.51676 0.8337131,0 1.2540147,-0.42719 0.4203016,-0.42719 0.4203016,-1.16444 z"
                 style="font-style:normal;font-variant:normal;font-weight:normal;font-stretch:normal;font-size:14.1111px;font-family:'Roboto Condensed';-inkscape-font-specification:'Roboto Condensed, ';fill:#286dfc;fill-opacity:1;stroke-width:0.0185219"
                 id="path852" />
              <path
                 d="m 16.244238,349.2101 h -3.548449 v 3.55534 h 4.134115 v 1.08176 h -5.395019 v -10.03212 h 5.326117 v 1.08865 h -4.065213 v 3.22461 h 3.548449 z"
                 style="font-style:normal;font-variant:normal;font-weight:normal;font-stretch:normal;font-size:14.1111px;font-family:'Roboto Condensed';-inkscape-font-specification:'Roboto Condensed, ';fill:#286dfc;fill-opacity:1;stroke-width:0.0185219"
                 id="path854" />
              <path
                 d="m 24.99478,353.8472 h -1.267795 l -4.016981,-7.7308 v 7.7308 h -1.267795 v -10.03212 h 1.267795 l 4.030761,7.76525 v -7.76525 h 1.254015 z"
                 style="font-style:normal;font-variant:normal;font-weight:normal;font-stretch:normal;font-size:14.1111px;font-family:'Roboto Condensed';-inkscape-font-specification:'Roboto Condensed, ';fill:#286dfc;fill-opacity:1;stroke-width:0.0185219"
                 id="path856" />
              <path
                 d="m 31.561133,351.31161 q 0,-0.75103 -0.406521,-1.15066 -0.406521,-0.39963 -1.467611,-0.7786 -1.061089,-0.37896 -1.626085,-0.79237 -0.558105,-0.4203 -0.840603,-0.95084 -0.275608,-0.53744 -0.275608,-1.22646 0,-1.192 0.792372,-1.9637 0.799262,-0.7717 2.087728,-0.7717 0.881944,0 1.570964,0.39963 0.689019,0.39274 1.061089,1.09554 0.37207,0.7028 0.37207,1.5434 h -1.267795 q 0,-0.93017 -0.447862,-1.44005 -0.447863,-0.50987 -1.288466,-0.50987 -0.764811,0 -1.185113,0.42719 -0.420301,0.42719 -0.420301,1.19889 0,0.6339 0.454752,1.06109 0.454753,0.42719 1.405599,0.76481 1.481391,0.48921 2.115289,1.20579 0.640787,0.71658 0.640787,1.87413 0,1.21956 -0.792372,1.95681 -0.792371,0.73036 -2.156629,0.73036 -0.875054,0 -1.619195,-0.37896 -0.73725,-0.38585 -1.164442,-1.07487 -0.420302,-0.69591 -0.420302,-1.59163 h 1.267795 q 0,0.93017 0.516764,1.44694 0.523655,0.51676 1.41938,0.51676 0.833713,0 1.254014,-0.42719 0.420302,-0.42719 0.420302,-1.16444 z"
                 style="font-style:normal;font-variant:normal;font-weight:normal;font-stretch:normal;font-size:14.1111px;font-family:'Roboto Condensed';-inkscape-font-specification:'Roboto Condensed, ';fill:#286dfc;fill-opacity:1;stroke-width:0.0185219"
                 id="path858" />
              <path
                 d="m 35.805492,353.8472 h -1.260905 v -10.03212 h 1.260905 z"
                 style="font-style:normal;font-variant:normal;font-weight:normal;font-stretch:normal;font-size:14.1111px;font-family:'Roboto Condensed';-inkscape-font-specification:'Roboto Condensed, ';fill:#286dfc;fill-opacity:1;stroke-width:0.0185219"
                 id="path860" />
            </g>
          </g>
        </g>
      </g>
    </g>
  </g>
</svg>
