<?xml version="1.0" encoding="UTF-8" standalone="no"?>
<svg
   xmlns:dc="http://purl.org/dc/elements/1.1/"
   xmlns:cc="http://creativecommons.org/ns#"
   xmlns:rdf="http://www.w3.org/1999/02/22-rdf-syntax-ns#"
   xmlns:svg="http://www.w3.org/2000/svg"
   xmlns="http://www.w3.org/2000/svg"
   xmlns:sodipodi="http://sodipodi.sourceforge.net/DTD/sodipodi-0.dtd"
   xmlns:inkscape="http://www.inkscape.org/namespaces/inkscape"
   width="21cm"
   height="29.700001cm"
   viewBox="0 0 210 297"
   version="1.1"
   id="svg8"
   inkscape:version="1.0.2 (e86c870879, 2021-01-15)"
   sodipodi:docname="portofolio-chapter-esai.svg">
  <defs
     id="defs2" />
  <sodipodi:namedview
     id="base"
     pagecolor="#ffffff"
     bordercolor="#666666"
     borderopacity="1.0"
     inkscape:pageopacity="0.0"
     inkscape:pageshadow="2"
     inkscape:zoom="0.54"
     inkscape:cx="642.53679"
     inkscape:cy="901.53252"
     inkscape:document-units="cm"
     inkscape:current-layer="text27"
     inkscape:document-rotation="0"
     showgrid="false"
     units="cm"
     inkscape:window-width="1366"
     inkscape:window-height="707"
     inkscape:window-x="0"
     inkscape:window-y="31"
     inkscape:window-maximized="1" />
  <metadata
     id="metadata5">
    <rdf:RDF>
      <cc:Work
         rdf:about="">
        <dc:format>image/svg+xml</dc:format>
        <dc:type
           rdf:resource="http://purl.org/dc/dcmitype/StillImage" />
        <dc:title />
      </cc:Work>
    </rdf:RDF>
  </metadata>
  <g
     inkscape:label="Layer 1"
     inkscape:groupmode="layer"
     id="layer1">
    <g
       aria-label="ESAI"
       id="text857"
       style="font-style:normal;font-weight:normal;font-size:16.9333px;line-height:1.25;font-family:sans-serif;fill:#286dfc;fill-opacity:1;stroke:none;stroke-width:0.264583">
      <g
         aria-label="ESAI"
         id="text27"
         style="font-style:normal;font-weight:normal;font-size:14.1111px;line-height:1.25;font-family:sans-serif;fill:#286dfc;fill-opacity:0.960784;stroke:none;stroke-width:0.0700042">
        <g
           id="g878">
          <g
             id="g23"
             style="font-style:normal;font-weight:normal;font-size:16.9333px;line-height:1.25;font-family:sans-serif;fill:#286dfc;fill-opacity:1;stroke:none;stroke-width:0.264583">
            <rect
               style="fill:#ffffff;fill-opacity:1;stroke-width:0.540015"
               id="rect10"
               width="210"
               height="297"
               x="2.7550593e-07"
               y="4.2043412e-06" />
            <rect
               style="fill:#286dfc;fill-opacity:1;stroke:none;stroke-width:0.51963;stroke-opacity:1"
               id="rect10-3"
               width="77.778"
               height="297"
               x="0"
               y="4.2043412e-06" />
          </g>
          <g
             id="g865"
             transform="translate(-7.2568047,-3.1666693)">
            <path
               d="m 105.18403,265.38949 h -3.54844 v 3.55533 h 4.13411 v 1.08176 h -5.39502 v -10.03211 h 5.32612 v 1.08865 h -4.06521 v 3.22461 h 3.54844 z"
               style="font-style:normal;font-variant:normal;font-weight:normal;font-stretch:normal;font-size:14.1111px;font-family:'Roboto Condensed';-inkscape-font-specification:'Roboto Condensed, ';fill:#286dfc;fill-opacity:0.960784;stroke-width:0.0700042"
               id="path852" />
            <path
               d="m 111.76416,267.49099 q 0,-0.75103 -0.40652,-1.15066 -0.40652,-0.39963 -1.46761,-0.77859 -1.06109,-0.37896 -1.62609,-0.79237 -0.5581,-0.4203 -0.8406,-0.95085 -0.27561,-0.53743 -0.27561,-1.22645 0,-1.192 0.79238,-1.9637 0.79926,-0.7717 2.08772,-0.7717 0.88195,0 1.57096,0.39963 0.68902,0.39274 1.06109,1.09554 0.37207,0.7028 0.37207,1.5434 h -1.26779 q 0,-0.93018 -0.44786,-1.44005 -0.44786,-0.50987 -1.28847,-0.50987 -0.76481,0 -1.18511,0.42719 -0.4203,0.42719 -0.4203,1.19889 0,0.6339 0.45475,1.06109 0.45475,0.42719 1.4056,0.76481 1.48139,0.4892 2.11529,1.20578 0.64078,0.71658 0.64078,1.87413 0,1.21956 -0.79237,1.95681 -0.79237,0.73036 -2.15663,0.73036 -0.87505,0 -1.61919,-0.37896 -0.73725,-0.38585 -1.16444,-1.07486 -0.4203,-0.69591 -0.4203,-1.59164 h 1.26779 q 0,0.93018 0.51677,1.44694 0.52365,0.51677 1.41937,0.51677 0.83372,0 1.25402,-0.4272 0.4203,-0.42719 0.4203,-1.16444 z"
               style="font-style:normal;font-variant:normal;font-weight:normal;font-stretch:normal;font-size:14.1111px;font-family:'Roboto Condensed';-inkscape-font-specification:'Roboto Condensed, ';fill:#286dfc;fill-opacity:0.960784;stroke-width:0.0700042"
               id="path854" />
            <path
               d="m 119.37092,267.40831 h -3.38997 l -0.77859,2.61827 h -1.29535 l 3.23149,-10.03211 h 1.08176 l 3.23839,10.03211 h -1.29535 z m -3.05924,-1.08865 h 2.73541 l -1.37115,-4.5613 z"
               style="font-style:normal;font-variant:normal;font-weight:normal;font-stretch:normal;font-size:14.1111px;font-family:'Roboto Condensed';-inkscape-font-specification:'Roboto Condensed, ';fill:#286dfc;fill-opacity:0.960784;stroke-width:0.0700042"
               id="path856" />
            <path
               d="m 124.13893,270.02658 h -1.2609 v -10.03211 h 1.2609 z"
               style="font-style:normal;font-variant:normal;font-weight:normal;font-stretch:normal;font-size:14.1111px;font-family:'Roboto Condensed';-inkscape-font-specification:'Roboto Condensed, ';fill:#286dfc;fill-opacity:0.960784;stroke-width:0.0700042"
               id="path858" />
          </g>
        </g>
      </g>
    </g>
  </g>
</svg>
