<?xml version="1.0" encoding="UTF-8" standalone="no"?>
<svg
   xmlns:dc="http://purl.org/dc/elements/1.1/"
   xmlns:cc="http://creativecommons.org/ns#"
   xmlns:rdf="http://www.w3.org/1999/02/22-rdf-syntax-ns#"
   xmlns:svg="http://www.w3.org/2000/svg"
   xmlns="http://www.w3.org/2000/svg"
   xmlns:sodipodi="http://sodipodi.sourceforge.net/DTD/sodipodi-0.dtd"
   xmlns:inkscape="http://www.inkscape.org/namespaces/inkscape"
   width="21cm"
   height="29.700001cm"
   viewBox="0 0 210 297"
   version="1.1"
   id="svg8"
   inkscape:version="1.0.2 (e86c870879, 2021-01-15)"
   sodipodi:docname="portofolio-chapter-cerpen.svg">
  <defs
     id="defs2" />
  <sodipodi:namedview
     id="base"
     pagecolor="#ffffff"
     bordercolor="#666666"
     borderopacity="1.0"
     inkscape:pageopacity="0.0"
     inkscape:pageshadow="2"
     inkscape:zoom="0.54"
     inkscape:cx="642.53679"
     inkscape:cy="899.16525"
     inkscape:document-units="cm"
     inkscape:current-layer="text27"
     inkscape:document-rotation="0"
     showgrid="false"
     units="cm"
     inkscape:window-width="1366"
     inkscape:window-height="707"
     inkscape:window-x="0"
     inkscape:window-y="31"
     inkscape:window-maximized="1" />
  <metadata
     id="metadata5">
    <rdf:RDF>
      <cc:Work
         rdf:about="">
        <dc:format>image/svg+xml</dc:format>
        <dc:type
           rdf:resource="http://purl.org/dc/dcmitype/StillImage" />
        <dc:title />
      </cc:Work>
    </rdf:RDF>
  </metadata>
  <g
     inkscape:label="Layer 1"
     inkscape:groupmode="layer"
     id="layer1">
    <g
       aria-label="ESAI"
       id="text857"
       style="font-style:normal;font-weight:normal;font-size:16.9333px;line-height:1.25;font-family:sans-serif;fill:#286dfc;fill-opacity:1;stroke:none;stroke-width:0.264583">
      <g
         aria-label="ESAI"
         id="text27"
         style="font-style:normal;font-weight:normal;font-size:14.1111px;line-height:1.25;font-family:sans-serif;fill:#286dfc;fill-opacity:0.960784;stroke:none;stroke-width:0.0700042">
        <g
           id="g908">
          <g
             id="g23"
             style="font-style:normal;font-weight:normal;font-size:16.9333px;line-height:1.25;font-family:sans-serif;fill:#286dfc;fill-opacity:1;stroke:none;stroke-width:0.264583">
            <rect
               style="fill:#ffffff;fill-opacity:1;stroke-width:0.540015"
               id="rect10"
               width="210"
               height="297"
               x="2.7550593e-07"
               y="4.2043412e-06" />
            <rect
               style="fill:#286dfc;fill-opacity:1;stroke:none;stroke-width:0.51963;stroke-opacity:1"
               id="rect10-3"
               width="77.778"
               height="297"
               x="0"
               y="4.2043412e-06" />
          </g>
          <g
             aria-label="CERPEN"
             id="text23"
             style="font-style:normal;font-weight:normal;font-size:14.1111px;line-height:1.25;font-family:sans-serif;fill:#286dfc;fill-opacity:1;stroke:none;stroke-width:0.0185219"
             transform="translate(-21.815267,-52.522593)">
            <g
               id="g895"
               transform="translate(153.42106,3.7459432)">
              <path
                 d="m -31.967677,312.4533 q -0.08268,1.6123 -0.909504,2.46669 -0.819933,0.85438 -2.321993,0.85438 -1.508951,0 -2.397785,-1.14377 -0.888834,-1.15066 -0.888834,-3.11436 v -1.81901 q 0,-1.95682 0.909505,-3.0937 0.916395,-1.13688 2.494247,-1.13688 1.453829,0 2.246201,0.87506 0.799261,0.86816 0.868163,2.48735 h -1.274684 q -0.08268,-1.22645 -0.516764,-1.7501 -0.434082,-0.52366 -1.322916,-0.52366 -1.026638,0 -1.577852,0.80615 -0.551215,0.79926 -0.551215,2.34956 v 1.83968 q 0,1.52273 0.509873,2.33577 0.516764,0.81304 1.502061,0.81304 0.985296,0 1.419378,-0.4892 0.434082,-0.48921 0.537435,-1.757 z"
                 style="font-style:normal;font-variant:normal;font-weight:normal;font-stretch:normal;font-size:14.1111px;font-family:'Roboto Condensed';-inkscape-font-specification:'Roboto Condensed, ';fill:#286dfc;fill-opacity:1;stroke-width:0.0185219"
                 id="path860" />
              <path
                 d="m -25.449561,310.99947 h -3.548446 v 3.55534 h 4.134111 v 1.08176 h -5.395015 v -10.03211 h 5.326114 v 1.08865 h -4.06521 v 3.2246 h 3.548446 z"
                 style="font-style:normal;font-variant:normal;font-weight:normal;font-stretch:normal;font-size:14.1111px;font-family:'Roboto Condensed';-inkscape-font-specification:'Roboto Condensed, ';fill:#286dfc;fill-opacity:1;stroke-width:0.0185219"
                 id="path862" />
              <path
                 d="m -20.21991,311.57825 h -1.763888 v 4.05832 h -1.267794 v -10.03211 h 2.811196 q 1.474499,0 2.23242,0.7717 0.75792,0.76481 0.75792,2.2462 0,0.93017 -0.413411,1.62608 -0.406521,0.68902 -1.157551,1.04042 l 1.943032,4.26502 v 0.0827 h -1.357366 z m -1.763888,-1.08176 h 1.529621 q 0.792372,0 1.260904,-0.50988 0.475423,-0.50987 0.475423,-1.36425 0,-1.92925 -1.750107,-1.92925 h -1.515841 z"
                 style="font-style:normal;font-variant:normal;font-weight:normal;font-stretch:normal;font-size:14.1111px;font-family:'Roboto Condensed';-inkscape-font-specification:'Roboto Condensed, ';fill:#286dfc;fill-opacity:1;stroke-width:0.0185219"
                 id="path864" />
              <path
                 d="m -14.501056,311.70916 v 3.92741 h -1.260904 v -10.03211 h 3.197046 q 1.398707,0 2.197969,0.8406 0.7992616,0.83371 0.7992616,2.22553 0,1.44694 -0.7648106,2.23242 -0.75792,0.77859 -2.142848,0.80615 z m 0,-1.08176 h 1.936142 q 0.840602,0 1.288465,-0.50298 0.447862,-0.50299 0.447862,-1.44005 0,-0.90262 -0.461643,-1.44694 -0.461642,-0.54432 -1.267794,-0.54432 h -1.943032 z"
                 style="font-style:normal;font-variant:normal;font-weight:normal;font-stretch:normal;font-size:14.1111px;font-family:'Roboto Condensed';-inkscape-font-specification:'Roboto Condensed, ';fill:#286dfc;fill-opacity:1;stroke-width:0.0185219"
                 id="path866" />
              <path
                 d="m -3.1322506,310.99947 h -3.5484456 v 3.55534 h 4.1341114 v 1.08176 h -5.3950154 v -10.03211 h 5.3261135 v 1.08865 h -4.0652095 v 3.2246 h 3.5484456 z"
                 style="font-style:normal;font-variant:normal;font-weight:normal;font-stretch:normal;font-size:14.1111px;font-family:'Roboto Condensed';-inkscape-font-specification:'Roboto Condensed, ';fill:#286dfc;fill-opacity:1;stroke-width:0.0185219"
                 id="path868" />
              <path
                 d="M 5.6182849,315.63657 H 4.3504907 l -4.0169782,-7.73079 v 7.73079 H -0.93428166 V 305.60446 H 0.3335125 l 4.0307586,7.76524 v -7.76524 h 1.2540138 z"
                 style="font-style:normal;font-variant:normal;font-weight:normal;font-stretch:normal;font-size:14.1111px;font-family:'Roboto Condensed';-inkscape-font-specification:'Roboto Condensed, ';fill:#286dfc;fill-opacity:1;stroke-width:0.0185219"
                 id="path870" />
            </g>
          </g>
        </g>
      </g>
    </g>
  </g>
</svg>
